<svg width="20" height="29" viewBox="0 0 20 29" fill="none" xmlns="http://www.w3.org/2000/svg">
<path d="M10.4178 14.5C10.4178 11.8306 12.5575 9.66663 15.1971 9.66663C17.8366 9.66663 19.9764 11.8306 19.9764 14.5C19.9764 17.1694 17.8366 19.3333 15.1971 19.3333C12.5575 19.3333 10.4178 17.1694 10.4178 14.5Z" fill="#1ABCFE"/>
<path d="M0.8591 24.1666C0.8591 21.4973 2.99888 19.3333 5.63843 19.3333H10.4178V24.1666C10.4178 26.836 8.278 29 5.63843 29C2.99888 29 0.8591 26.836 0.8591 24.1666Z" fill="#0ACF83"/>
<path d="M10.4178 0V9.66664H15.1971C17.8367 9.66664 19.9764 7.5027 19.9764 4.83333C19.9764 2.16396 17.8367 0 15.1971 0H10.4178Z" fill="#FF7262"/>
<path d="M0.859116 4.83333C0.859116 7.50271 2.99889 9.66664 5.63845 9.66664H10.4178V0H5.63845C2.99889 0 0.859116 2.16396 0.859116 4.83333Z" fill="#F24E1E"/>
<path d="M0.8591 14.5C0.8591 17.1694 2.99888 19.3333 5.63843 19.3333H10.4178V9.66663H5.63843C2.99888 9.66663 0.8591 11.8306 0.8591 14.5Z" fill="#A259FF"/>
</svg>
